<?xml version="1.0" standalone="no"?>
<!DOCTYPE svg PUBLIC "-//W3C//DTD SVG 20010904//EN"
 "http://www.w3.org/TR/2001/REC-SVG-20010904/DTD/svg10.dtd">
<svg version="1.0" xmlns="http://www.w3.org/2000/svg"
 width="231.000000pt" height="239.000000pt" viewBox="0 0 231.000000 239.000000"
 preserveAspectRatio="xMidYMid meet">
<metadata>
Created by potrace 1.16, written by Peter Selinger 2001-2019
</metadata>
<g transform="translate(0.000000,239.000000) scale(0.100000,-0.100000)"
fill="#000000" stroke="none">
<path d="M1457 2207 c4 -6 8 -15 8 -19 0 -3 12 -16 28 -28 15 -12 27 -26 27
-32 0 -5 6 -24 14 -41 14 -33 54 -186 63 -245 6 -37 35 -59 52 -39 12 15 17
118 7 136 -4 6 -13 8 -19 5 -7 -4 -9 -3 -4 1 4 5 1 16 -7 24 -8 9 -19 45 -25
80 -11 65 -32 111 -53 111 -9 0 -9 3 1 13 10 10 15 8 26 -6 8 -12 15 -14 20
-7 7 12 -60 44 -113 54 -25 4 -31 3 -25 -7z"/>
<path d="M1726 1848 c-4 -9 -5 -22 -1 -28 4 -6 1 -9 -6 -8 -7 2 -13 -2 -14 -9
0 -6 -3 -15 -7 -18 -4 -4 -1 -20 7 -36 8 -15 15 -35 15 -43 0 -9 7 -12 21 -9
32 9 77 -40 71 -77 -4 -28 -32 -65 -32 -42 0 5 -21 34 -47 63 -26 30 -41 48
-33 42 8 -7 21 -13 30 -12 8 0 4 5 -10 11 -14 6 -31 10 -37 9 -12 -2 -18 12
-14 32 1 5 -3 6 -8 3 -9 -6 -85 31 -121 58 -45 34 -110 53 -214 62 -56 5 -226
-37 -226 -56 0 -4 7 -13 15 -20 8 -7 12 -17 8 -23 -3 -6 -1 -7 6 -3 6 4 9 12
6 17 -6 8 8 13 28 10 4 0 7 3 7 8 0 17 102 33 178 29 76 -5 84 -8 210 -73 18
-10 80 -64 139 -121 58 -57 109 -101 113 -99 11 7 31 125 25 150 -2 11 -7 37
-10 58 -3 22 -11 37 -20 37 -12 0 -28 29 -30 55 0 6 -8 9 -17 7 -11 -2 -18 6
-21 20 -3 20 -5 21 -11 6z"/>
<path d="M1194 1733 c4 -8 2 -13 -6 -14 -7 0 -38 -3 -68 -5 -39 -3 -51 -1 -40
6 38 25 -5 6 -77 -34 -79 -45 -199 -153 -278 -251 -22 -28 -46 -56 -53 -64 -7
-7 -31 -41 -54 -75 -23 -33 -48 -67 -55 -74 -22 -23 -15 -40 32 -72 25 -17 45
-35 45 -40 0 -8 -83 -40 -106 -40 -7 0 -25 14 -41 31 -15 17 -38 41 -50 54
-12 12 -23 33 -25 45 -1 13 -9 25 -15 28 -10 3 -13 -18 -13 -84 0 -48 3 -84 6
-81 4 4 16 -10 27 -31 11 -20 37 -56 58 -79 22 -24 39 -47 39 -53 0 -6 15 -33
33 -60 26 -41 42 -54 87 -71 30 -11 77 -22 105 -24 27 -2 61 -8 75 -13 14 -5
47 -12 74 -16 l48 -8 57 59 c31 32 67 78 81 102 14 23 34 54 46 68 35 44 104
28 104 -23 0 -13 11 -47 24 -76 12 -29 26 -61 29 -71 7 -19 -35 -104 -61 -124
-11 -10 -12 -16 -3 -26 9 -11 8 -17 -4 -27 -8 -7 -12 -17 -8 -23 4 -6 0 -8 -8
-5 -10 4 -15 -1 -16 -13 -2 -18 0 -18 23 -3 13 9 28 23 32 31 12 20 42 5 42
-21 0 -49 -20 -59 -131 -67 -124 -9 -117 -7 -100 -18 22 -14 193 -24 222 -12
37 13 44 2 17 -27 -23 -23 -23 -24 -4 -38 11 -8 18 -14 15 -15 -2 0 -29 -6
-59 -12 -52 -11 -55 -14 -58 -44 -3 -26 1 -32 20 -35 13 -2 36 2 51 10 39 19
57 9 57 -30 -1 -26 -8 -37 -32 -53 -17 -11 -34 -27 -38 -35 -4 -8 -12 -25 -18
-37 -16 -31 -15 -33 13 -33 30 0 31 -4 5 -30 -13 -13 -33 -20 -56 -20 -19 0
-44 -5 -55 -11 -18 -9 -27 -4 -66 40 -73 82 -153 145 -165 133 -14 -14 42
-101 110 -174 l45 -48 488 0 c358 0 490 3 495 12 5 7 3 8 -6 3 -9 -6 -11 -4
-5 5 6 10 10 10 19 -2 10 -13 13 -13 24 -2 7 8 10 19 7 24 -3 6 2 10 12 11 69
4 67 3 86 54 24 65 29 70 66 57 28 -10 33 -9 48 15 12 17 18 54 21 114 5 103
9 100 -93 68 -59 -19 -74 -20 -119 -10 -28 6 -79 13 -113 16 -46 3 -73 11
-104 32 -23 15 -67 37 -98 48 -47 17 -57 25 -65 53 -8 28 -5 42 17 85 14 29
33 85 41 126 9 40 24 92 35 115 11 22 35 91 54 153 20 61 42 124 50 139 15 29
7 87 -15 109 -7 7 -8 3 -4 -12 4 -12 2 -24 -3 -27 -9 -6 -42 56 -77 144 -39
102 -71 158 -123 220 -30 36 -57 65 -60 65 -3 0 -13 4 -21 10 -13 8 -13 7 -1
-8 7 -9 17 -14 22 -11 5 3 9 -2 9 -10 0 -9 -2 -16 -5 -16 -7 0 -77 40 -106 61
-15 10 -38 23 -53 29 -14 5 -26 14 -26 19 0 5 -9 8 -21 6 -11 -2 -32 0 -47 6
-21 8 -23 12 -12 19 8 6 10 10 5 10 -6 0 -16 -5 -21 -10 -7 -7 -19 -7 -35 -1
-13 5 -42 7 -63 5 -22 -3 -45 1 -54 8 -12 10 -14 10 -8 1z m-504 -673 c4 -6
42 -13 84 -16 42 -2 93 -11 113 -19 20 -8 49 -18 66 -20 16 -3 42 -12 58 -20
l28 -15 -19 -55 c-17 -49 -17 -57 -4 -62 20 -8 2 -29 -48 -54 -49 -25 -245
-38 -300 -20 -50 17 -85 58 -113 136 -21 58 -23 71 -12 93 6 13 17 25 22 25 6
0 19 7 31 16 25 19 85 26 94 11z m840 -125 c6 -8 13 -30 15 -50 4 -41 -11 -48
-90 -43 -44 3 -50 6 -68 41 -15 30 -17 40 -7 52 17 21 133 21 150 0z"/>
</g>
</svg>
